<svg id="Big_Profile" data-name="Big Profile" xmlns="http://www.w3.org/2000/svg" width="124.065" height="124.065" viewBox="0 0 124.065 124.065">
  <path id="Path_1" data-name="Path 1" d="M62.042,0a62.033,62.033,0,1,0,62.023,62.042A62.1,62.1,0,0,0,62.042,0Zm0,9.539A52.463,52.463,0,0,1,100.8,97.379C97.227,90.792,86.7,85.4,75.461,83.051c0,0-5.375-1.438-2.99-6.7,3.331-4.3,5.375-9.009,5.375-10.447,0,0,4.732-3.8,5.2-9.539.492-5.261-1.041-5.81-1.041-5.81,1.911-6.208,2.423-29.564-12.378-26.687-2.385-4.788-18.037-8.555-25.192,4.315-3.331,6.208-4.826,15.255-1.5,21.917,0,.492-1-.492-1.5,2.839,0,3.331,1.552,8.082,2.99,9.993a4.837,4.837,0,0,0,2.385,1.93A25.777,25.777,0,0,0,52.049,75.9c.946,4.3-3.444,6.719-3.444,6.719-11.621,2.328-22.182,7.741-25.8,14.309A52.5,52.5,0,0,1,62.042,9.539Z" transform="translate(0 0)" fill="#d50404"/>
</svg>
