<svg xmlns="http://www.w3.org/2000/svg" width="40" height="40" viewBox="0 0 40 40">
  <g id="campus_navigation_icon" transform="translate(-3926 -1117)">
    <circle id="Ellipse_3" data-name="Ellipse 3" cx="20" cy="20" r="20" transform="translate(3926 1117)" fill="#740c01"/>
    <circle id="Ellipse_3-2" data-name="Ellipse 3" cx="20" cy="20" r="20" transform="translate(3926 1117)" fill="#740c01"/>
    <path id="Path_49" data-name="Path 49" d="M20.667,8.444,13.333,6,6,8.444V28l7.333-2.444L20.667,28,28,25.556V6Z" transform="translate(3929 1120)" fill="#ffecb3"/>
    <path id="Path_50" data-name="Path 50" d="M18,6V25.556L25.333,28V8.444Z" transform="translate(3924.333 1120)" fill="#ffe082"/>
    <path id="Path_51" data-name="Path 51" d="M27.278,15A4.389,4.389,0,0,0,23,19.493c0,2.48,4.278,8.341,4.278,8.341s4.278-5.863,4.278-8.341A4.389,4.389,0,0,0,27.278,15Z" transform="translate(3922.389 1116.5)" fill="#f44336"/>
    <path id="Path_52" data-name="Path 52" d="M30.667,20.833A1.833,1.833,0,1,1,28.833,19,1.834,1.834,0,0,1,30.667,20.833Z" transform="translate(3920.833 1114.944)" fill="#ffebee"/>
    <path id="Path_49-2" data-name="Path 49" d="M20.667,8.444,13.333,6,6,8.444V28l7.333-2.444L20.667,28,28,25.556V6Z" transform="translate(3929 1120)" fill="#ffecb3"/>
    <path id="Path_50-2" data-name="Path 50" d="M18,6V25.556L25.333,28V8.444Z" transform="translate(3924.333 1120)" fill="#ffe082"/>
    <path id="Path_51-2" data-name="Path 51" d="M27.278,15A4.389,4.389,0,0,0,23,19.493c0,2.48,4.278,8.341,4.278,8.341s4.278-5.863,4.278-8.341A4.389,4.389,0,0,0,27.278,15Z" transform="translate(3922.389 1116.5)" fill="#f44336"/>
    <path id="Path_52-2" data-name="Path 52" d="M30.667,20.833A1.833,1.833,0,1,1,28.833,19,1.834,1.834,0,0,1,30.667,20.833Z" transform="translate(3920.833 1114.944)" fill="#ffebee"/>
  </g>
</svg>
