<svg xmlns="http://www.w3.org/2000/svg" width="96" height="96" viewBox="0 0 96 96">
  <g id="map" transform="translate(0.181 0.277)">
    <circle id="Ellipse_3" data-name="Ellipse 3" cx="48" cy="48" r="48" transform="translate(-0.181 -0.277)" fill="#d50404"/>
    <g id="Group_138" data-name="Group 138" transform="translate(21.447 21.447)">
      <path id="Path_49" data-name="Path 49" d="M40.95,11.825,23.475,6,6,11.825v46.6L23.475,52.6,40.95,58.425,58.425,52.6V6Z" transform="translate(-6 -6)" fill="#ffecb3"/>
      <path id="Path_50" data-name="Path 50" d="M18,6V52.6l17.475,5.825v-46.6Z" transform="translate(-0.524 -6)" fill="#ffe082"/>
      <path id="Path_51" data-name="Path 51" d="M33.194,15A10.46,10.46,0,0,0,23,25.706c0,5.91,10.194,19.876,10.194,19.876S43.388,31.611,43.388,25.706A10.46,10.46,0,0,0,33.194,15Z" transform="translate(1.756 -1.894)" fill="#f44336"/>
      <path id="Path_52" data-name="Path 52" d="M35.738,23.369A4.369,4.369,0,1,1,31.369,19,4.37,4.37,0,0,1,35.738,23.369Z" transform="translate(3.582 -0.069)" fill="#ffebee"/>
    </g>
  </g>
</svg>
