<svg xmlns="http://www.w3.org/2000/svg" width="95" height="96" viewBox="0 0 95 96">
  <g id="peer.counseling" transform="translate(-0.5 0.404)">
    <ellipse id="Ellipse_22" data-name="Ellipse 22" cx="47.5" cy="48" rx="47.5" ry="48" transform="translate(0.5 -0.404)" fill="#d50404"/>
    <g id="Group_135" data-name="Group 135" transform="translate(16.681 29.893)">
      <path id="Path_135" data-name="Path 135" d="M91.208,136.853,73.566,119.211l3.9-2.966-3.122-3.122H53.27L40,110v24.98l9.211,1.561,18.735,19.047a3.091,3.091,0,0,0,4.371-4.371l-.156-.156a.773.773,0,0,1,1.093-1.093l1.249,1.249a3.091,3.091,0,1,0,4.371-4.371l-.468-.468a.773.773,0,1,1,1.093-1.093l1.561,1.561a3.091,3.091,0,0,0,4.371-4.371l-.468-.468a.773.773,0,0,1,1.093-1.093l.468.468a3.018,3.018,0,0,0,4.371,0A2.973,2.973,0,0,0,91.208,136.853Z" transform="translate(-40 -109.229)" fill="#ffb74d"/>
      <path id="Path_136" data-name="Path 136" d="M165.646,118.168l-7.338,2.81a11.056,11.056,0,0,1-12.334-2.81,1.358,1.358,0,0,1,.468-2.186l20.764-10.148a7.478,7.478,0,0,1,7.65.624l.624.468a7.635,7.635,0,0,0,6.089,1.093l9.992-2.186v24.98l-9.211,1.561-1.249,1.249Z" transform="translate(-129.114 -105.064)" fill="#d57f16"/>
      <path id="Path_137" data-name="Path 137" d="M174.937,355.4a3.018,3.018,0,0,0,4.371,0l1.093-1.093a3.091,3.091,0,1,0-4.371-4.371l-1.093,1.093A3.018,3.018,0,0,0,174.937,355.4Z" transform="translate(-153.079 -310.916)" fill="#d57f16"/>
      <path id="Path_138" data-name="Path 138" d="M146.57,327.4a3.018,3.018,0,0,0,4.371,0l1.093-1.093a3.091,3.091,0,1,0-4.371-4.371l-1.093,1.093A3.322,3.322,0,0,0,146.57,327.4Z" transform="translate(-129.24 -287.287)" fill="#d57f16"/>
      <path id="Path_139" data-name="Path 139" d="M117.937,299.4a3.018,3.018,0,0,0,4.371,0l1.093-1.093a3.091,3.091,0,0,0-4.371-4.371l-1.093,1.093A3.017,3.017,0,0,0,117.937,299.4Z" transform="translate(-104.978 -263.659)" fill="#d57f16"/>
      <path id="Path_140" data-name="Path 140" d="M89.937,270.4a3.018,3.018,0,0,0,4.371,0l1.093-1.093a3.091,3.091,0,0,0-4.371-4.371l-1.093,1.093A3.018,3.018,0,0,0,89.937,270.4Z" transform="translate(-81.35 -239.186)" fill="#d57f16"/>
      <path id="Path_141" data-name="Path 141" d="M192.342,361.278,190,359.093l.624-.624a1.334,1.334,0,0,1,2.03,0l.156.156a1.334,1.334,0,0,1,0,2.03Z" transform="translate(-166.582 -318.511)" fill="#ebae55"/>
      <path id="Path_142" data-name="Path 142" d="M164.186,333.278,162,331.093l.624-.625a1.334,1.334,0,0,1,2.03,0l.156.156a1.334,1.334,0,0,1,0,2.03Z" transform="translate(-142.952 -294.882)" fill="#ebae55"/>
      <path id="Path_143" data-name="Path 143" d="M136.186,305.279,134,303.093l.624-.625a1.334,1.334,0,0,1,2.03,0l.156.156a1.334,1.334,0,0,1,0,2.03Z" transform="translate(-119.324 -271.254)" fill="#ebae55"/>
      <path id="Path_144" data-name="Path 144" d="M108.186,276.435,106,274.093l.624-.624a1.334,1.334,0,0,1,2.03,0l.156.156a1.333,1.333,0,0,1,0,2.03Z" transform="translate(-95.695 -246.781)" fill="#ebae55"/>
    </g>
  </g>
</svg>
