<svg xmlns="http://www.w3.org/2000/svg" width="25.313" height="27" viewBox="0 0 25.313 27">
  <g id="counseling_assistance" transform="translate(-6 -4)">
    <path id="Path_104" data-name="Path 104" d="M26.077,19.077,15.692,17l-4.154,4.154L6,21.846V32.923H26.077Z" transform="translate(0 -4)" fill="#ffcc80"/>
    <path id="Path_105" data-name="Path 105" d="M31,21.731a1.729,1.729,0,0,0,1.731,1.731h3.462a1.731,1.731,0,1,0,0-3.462H32.731A1.729,1.729,0,0,0,31,21.731Z" transform="translate(-7.303 -4.923)" fill="#ffcc80"/>
    <path id="Path_106" data-name="Path 106" d="M32,26.731a1.729,1.729,0,0,0,1.731,1.731h3.462a1.731,1.731,0,0,0,0-3.462H33.731A1.729,1.729,0,0,0,32,26.731Z" transform="translate(-7.611 -6.462)" fill="#ffcc80"/>
    <path id="Path_107" data-name="Path 107" d="M31,31.731a1.729,1.729,0,0,0,1.731,1.731h3.462a1.731,1.731,0,1,0,0-3.462H32.731A1.729,1.729,0,0,0,31,31.731Z" transform="translate(-7.303 -8)" fill="#ffcc80"/>
    <path id="Path_108" data-name="Path 108" d="M29,36.731a1.729,1.729,0,0,0,1.731,1.731h3.462a1.731,1.731,0,1,0,0-3.462H30.731A1.729,1.729,0,0,0,29,36.731Z" transform="translate(-6.688 -9.538)" fill="#ffcc80"/>
    <path id="Path_109" data-name="Path 109" d="M37.462,25H34.692a.692.692,0,0,0,0,1.385Z" transform="translate(-8.226 -6.462)" fill="#f2a25a"/>
    <path id="Path_110" data-name="Path 110" d="M37.462,30H34.692a.692.692,0,0,0,0,1.385Z" transform="translate(-8.226 -8)" fill="#f2a25a"/>
    <path id="Path_111" data-name="Path 111" d="M35.769,35H33.692a.692.692,0,0,0,0,1.385Z" transform="translate(-7.918 -9.538)" fill="#f2a25a"/>
    <path id="Path_112" data-name="Path 112" d="M21.731,41.154a1.7,1.7,0,0,0,1.731-1.66v-.83a1.732,1.732,0,0,0-3.462,0v.83a1.7,1.7,0,0,0,1.731,1.66" transform="translate(-4.132 -10.154)" fill="#ffa000"/>
    <path id="Path_113" data-name="Path 113" d="M31.731,41.154a1.7,1.7,0,0,0,1.731-1.66v-.83a1.732,1.732,0,0,0-3.462,0v.83a1.7,1.7,0,0,0,1.731,1.66" transform="translate(-7.083 -10.154)" fill="#ffa000"/>
    <path id="Path_114" data-name="Path 114" d="M26.731,41.154a1.7,1.7,0,0,0,1.731-1.66v-.83a1.732,1.732,0,0,0-3.462,0v.83a1.7,1.7,0,0,0,1.731,1.66" transform="translate(-5.607 -10.154)" fill="#ffa000"/>
    <path id="Path_115" data-name="Path 115" d="M16.731,41.154a1.7,1.7,0,0,0,1.731-1.66v-.83a1.732,1.732,0,0,0-3.462,0v.83a1.7,1.7,0,0,0,1.731,1.66" transform="translate(-2.656 -10.154)" fill="#ffa000"/>
    <path id="Path_116" data-name="Path 116" d="M23.154,15.077,19,13l.96-1.85a3.452,3.452,0,0,1,2.5-2.3s1.385,0,2.769-2.077L26.615,4l8.308,6.231-1.9,4.441-.181.406Z" transform="translate(-3.611)" fill="#ffa000"/>
    <path id="Path_117" data-name="Path 117" d="M17.9,17l5.538.692L21.555,21.76A8.762,8.762,0,0,1,18.7,25.108l-.592.444a1.806,1.806,0,0,1-2.347-.211l-.216-.287a.679.679,0,0,1,.024-.836l1.025-1.252a4.494,4.494,0,0,0,.936-1.974Z" transform="translate(-2.745 -4)" fill="#ffa000"/>
    <path id="Path_118" data-name="Path 118" d="M31,38.968a1.04,1.04,0,0,1,2.077.022c-.005.541-2.082.519-2.077-.022" transform="translate(-7.397 -10.462)" fill="#ffcdd2"/>
    <path id="Path_119" data-name="Path 119" d="M21,38.968a1.04,1.04,0,0,1,2.077.022c-.005.541-2.082.519-2.077-.022" transform="translate(-4.438 -10.462)" fill="#ffcdd2"/>
    <path id="Path_120" data-name="Path 120" d="M16,38.968a1.04,1.04,0,0,1,2.077.022c-.005.541-2.082.519-2.077-.022" transform="translate(-2.959 -10.462)" fill="#ffcdd2"/>
    <path id="Path_121" data-name="Path 121" d="M26,38.968a1.04,1.04,0,0,1,2.077.022c-.005.541-2.082.519-2.077-.022" transform="translate(-5.918 -10.462)" fill="#ffcdd2"/>
  </g>
</svg>
