<svg xmlns="http://www.w3.org/2000/svg" width="40" height="40" viewBox="0 0 40 40">
  <g id="counseling_assistance_icon" transform="translate(-4020 -1344)">
    <circle id="Ellipse_11" data-name="Ellipse 11" cx="20" cy="20" r="20" transform="translate(4020 1344)" fill="#d50404"/>
    <g id="Group_133" data-name="Group 133">
      <path id="Path_104" data-name="Path 104" d="M26.077,19.077,15.692,17l-4.154,4.154L6,21.846V32.923H26.077Z" transform="translate(4021 1343)" fill="#ffcc80"/>
      <path id="Path_105" data-name="Path 105" d="M31,21.731a1.729,1.729,0,0,0,1.731,1.731h3.462a1.731,1.731,0,1,0,0-3.462H32.731A1.729,1.729,0,0,0,31,21.731Z" transform="translate(4013.697 1342.077)" fill="#ffcc80"/>
      <path id="Path_106" data-name="Path 106" d="M32,26.731a1.729,1.729,0,0,0,1.731,1.731h3.462a1.731,1.731,0,0,0,0-3.462H33.731A1.729,1.729,0,0,0,32,26.731Z" transform="translate(4013.389 1340.538)" fill="#ffcc80"/>
      <path id="Path_107" data-name="Path 107" d="M31,31.731a1.729,1.729,0,0,0,1.731,1.731h3.462a1.731,1.731,0,1,0,0-3.462H32.731A1.729,1.729,0,0,0,31,31.731Z" transform="translate(4013.697 1339)" fill="#ffcc80"/>
      <path id="Path_108" data-name="Path 108" d="M29,36.731a1.729,1.729,0,0,0,1.731,1.731h3.462a1.731,1.731,0,1,0,0-3.462H30.731A1.729,1.729,0,0,0,29,36.731Z" transform="translate(4014.313 1337.462)" fill="#ffcc80"/>
      <path id="Path_109" data-name="Path 109" d="M37.462,25H34.692a.692.692,0,0,0,0,1.385Z" transform="translate(4012.774 1340.538)" fill="#f2a25a"/>
      <path id="Path_110" data-name="Path 110" d="M37.462,30H34.692a.692.692,0,0,0,0,1.385Z" transform="translate(4012.774 1339)" fill="#f2a25a"/>
      <path id="Path_111" data-name="Path 111" d="M35.769,35H33.692a.692.692,0,0,0,0,1.385Z" transform="translate(4013.082 1337.462)" fill="#f2a25a"/>
      <path id="Path_112" data-name="Path 112" d="M21.731,41.154a1.7,1.7,0,0,0,1.731-1.66v-.83a1.732,1.732,0,0,0-3.462,0v.83a1.7,1.7,0,0,0,1.731,1.66" transform="translate(4016.868 1336.846)" fill="#ffa000"/>
      <path id="Path_113" data-name="Path 113" d="M31.731,41.154a1.7,1.7,0,0,0,1.731-1.66v-.83a1.732,1.732,0,0,0-3.462,0v.83a1.7,1.7,0,0,0,1.731,1.66" transform="translate(4013.917 1336.846)" fill="#ffa000"/>
      <path id="Path_114" data-name="Path 114" d="M26.731,41.154a1.7,1.7,0,0,0,1.731-1.66v-.83a1.732,1.732,0,0,0-3.462,0v.83a1.7,1.7,0,0,0,1.731,1.66" transform="translate(4015.393 1336.846)" fill="#ffa000"/>
      <path id="Path_115" data-name="Path 115" d="M16.731,41.154a1.7,1.7,0,0,0,1.731-1.66v-.83a1.732,1.732,0,0,0-3.462,0v.83a1.7,1.7,0,0,0,1.731,1.66" transform="translate(4018.344 1336.846)" fill="#ffa000"/>
      <path id="Path_116" data-name="Path 116" d="M23.154,15.077,19,13l.96-1.85a3.452,3.452,0,0,1,2.5-2.3s1.385,0,2.769-2.077L26.615,4l8.308,6.231-1.9,4.441-.181.406Z" transform="translate(4017.389 1347)" fill="#ffa000"/>
      <path id="Path_117" data-name="Path 117" d="M17.9,17l5.538.692L21.555,21.76A8.762,8.762,0,0,1,18.7,25.108l-.592.444a1.806,1.806,0,0,1-2.347-.211l-.216-.287a.679.679,0,0,1,.024-.836l1.025-1.252a4.494,4.494,0,0,0,.936-1.974Z" transform="translate(4018.254 1343)" fill="#ffa000"/>
      <path id="Path_118" data-name="Path 118" d="M31,38.968a1.04,1.04,0,0,1,2.077.022c-.005.541-2.082.519-2.077-.022" transform="translate(4013.603 1336.538)" fill="#ffcdd2"/>
      <path id="Path_119" data-name="Path 119" d="M21,38.968a1.04,1.04,0,0,1,2.077.022c-.005.541-2.082.519-2.077-.022" transform="translate(4016.562 1336.538)" fill="#ffcdd2"/>
      <path id="Path_120" data-name="Path 120" d="M16,38.968a1.04,1.04,0,0,1,2.077.022c-.005.541-2.082.519-2.077-.022" transform="translate(4018.041 1336.538)" fill="#ffcdd2"/>
      <path id="Path_121" data-name="Path 121" d="M26,38.968a1.04,1.04,0,0,1,2.077.022c-.005.541-2.082.519-2.077-.022" transform="translate(4015.082 1336.538)" fill="#ffcdd2"/>
      <path id="Path_104-2" data-name="Path 104" d="M26.077,19.077,15.692,17l-4.154,4.154L6,21.846V32.923H26.077Z" transform="translate(4021 1343)" fill="#ffcc80"/>
      <path id="Path_105-2" data-name="Path 105" d="M31,21.731a1.729,1.729,0,0,0,1.731,1.731h3.462a1.731,1.731,0,1,0,0-3.462H32.731A1.729,1.729,0,0,0,31,21.731Z" transform="translate(4013.697 1342.077)" fill="#ffcc80"/>
      <path id="Path_106-2" data-name="Path 106" d="M32,26.731a1.729,1.729,0,0,0,1.731,1.731h3.462a1.731,1.731,0,0,0,0-3.462H33.731A1.729,1.729,0,0,0,32,26.731Z" transform="translate(4013.389 1340.538)" fill="#ffcc80"/>
      <path id="Path_107-2" data-name="Path 107" d="M31,31.731a1.729,1.729,0,0,0,1.731,1.731h3.462a1.731,1.731,0,1,0,0-3.462H32.731A1.729,1.729,0,0,0,31,31.731Z" transform="translate(4013.697 1339)" fill="#ffcc80"/>
      <path id="Path_108-2" data-name="Path 108" d="M29,36.731a1.729,1.729,0,0,0,1.731,1.731h3.462a1.731,1.731,0,1,0,0-3.462H30.731A1.729,1.729,0,0,0,29,36.731Z" transform="translate(4014.313 1337.462)" fill="#ffcc80"/>
      <path id="Path_109-2" data-name="Path 109" d="M37.462,25H34.692a.692.692,0,0,0,0,1.385Z" transform="translate(4012.774 1340.538)" fill="#f2a25a"/>
      <path id="Path_110-2" data-name="Path 110" d="M37.462,30H34.692a.692.692,0,0,0,0,1.385Z" transform="translate(4012.774 1339)" fill="#f2a25a"/>
      <path id="Path_111-2" data-name="Path 111" d="M35.769,35H33.692a.692.692,0,0,0,0,1.385Z" transform="translate(4013.082 1337.462)" fill="#f2a25a"/>
      <path id="Path_112-2" data-name="Path 112" d="M21.731,41.154a1.7,1.7,0,0,0,1.731-1.66v-.83a1.732,1.732,0,0,0-3.462,0v.83a1.7,1.7,0,0,0,1.731,1.66" transform="translate(4016.868 1336.846)" fill="#ffa000"/>
      <path id="Path_113-2" data-name="Path 113" d="M31.731,41.154a1.7,1.7,0,0,0,1.731-1.66v-.83a1.732,1.732,0,0,0-3.462,0v.83a1.7,1.7,0,0,0,1.731,1.66" transform="translate(4013.917 1336.846)" fill="#ffa000"/>
      <path id="Path_114-2" data-name="Path 114" d="M26.731,41.154a1.7,1.7,0,0,0,1.731-1.66v-.83a1.732,1.732,0,0,0-3.462,0v.83a1.7,1.7,0,0,0,1.731,1.66" transform="translate(4015.393 1336.846)" fill="#ffa000"/>
      <path id="Path_115-2" data-name="Path 115" d="M16.731,41.154a1.7,1.7,0,0,0,1.731-1.66v-.83a1.732,1.732,0,0,0-3.462,0v.83a1.7,1.7,0,0,0,1.731,1.66" transform="translate(4018.344 1336.846)" fill="#ffa000"/>
      <path id="Path_116-2" data-name="Path 116" d="M23.154,15.077,19,13l.96-1.85a3.452,3.452,0,0,1,2.5-2.3s1.385,0,2.769-2.077L26.615,4l8.308,6.231-1.9,4.441-.181.406Z" transform="translate(4017.389 1347)" fill="#ffa000"/>
      <path id="Path_117-2" data-name="Path 117" d="M17.9,17l5.538.692L21.555,21.76A8.762,8.762,0,0,1,18.7,25.108l-.592.444a1.806,1.806,0,0,1-2.347-.211l-.216-.287a.679.679,0,0,1,.024-.836l1.025-1.252a4.494,4.494,0,0,0,.936-1.974Z" transform="translate(4018.254 1343)" fill="#ffa000"/>
      <path id="Path_118-2" data-name="Path 118" d="M31,38.968a1.04,1.04,0,0,1,2.077.022c-.005.541-2.082.519-2.077-.022" transform="translate(4013.603 1336.538)" fill="#ffcdd2"/>
      <path id="Path_119-2" data-name="Path 119" d="M21,38.968a1.04,1.04,0,0,1,2.077.022c-.005.541-2.082.519-2.077-.022" transform="translate(4016.562 1336.538)" fill="#ffcdd2"/>
      <path id="Path_120-2" data-name="Path 120" d="M16,38.968a1.04,1.04,0,0,1,2.077.022c-.005.541-2.082.519-2.077-.022" transform="translate(4018.041 1336.538)" fill="#ffcdd2"/>
      <path id="Path_121-2" data-name="Path 121" d="M26,38.968a1.04,1.04,0,0,1,2.077.022c-.005.541-2.082.519-2.077-.022" transform="translate(4015.082 1336.538)" fill="#ffcdd2"/>
    </g>
  </g>
</svg>
