<svg id="edit" xmlns="http://www.w3.org/2000/svg" width="11.979" height="11.98" viewBox="0 0 11.979 11.98">
  <path id="Path_125" data-name="Path 125" d="M37.527,6.281l-1.15-1.15a.448.448,0,0,0-.635,0l-.542.542,1.786,1.786.542-.542a.448.448,0,0,0,0-.635" transform="translate(-25.679 -4.999)" fill="#e57373"/>
  <path id="Path_126" data-name="Path 126" d="M16.718,11.754,8.692,19.781,6.906,18l8.026-8.026Z" transform="translate(-6.305 -8.402)" fill="#ff9800"/>
  <path id="Path_127" data-name="Path 127" d="M32.363,8.03l.893-.893,1.787,1.786-.893.893Z" transform="translate(-23.737 -6.463)" fill="#b0bec5"/>
  <path id="Path_128" data-name="Path 128" d="M5.6,35.43,5,37.816l2.386-.6Z" transform="translate(-5 -25.837)" fill="#ffc107"/>
  <path id="Path_129" data-name="Path 129" d="M5.3,39.172,5,40.379l1.207-.3Z" transform="translate(-5 -28.399)" fill="#37474f"/>
</svg>
