<svg xmlns="http://www.w3.org/2000/svg" width="40" height="40" viewBox="0 0 40 40">
  <g id="hostel_finder_icon" transform="translate(-4020 -1117)">
    <circle id="Ellipse_3" data-name="Ellipse 3" cx="20" cy="20" r="20" transform="translate(4020 1117)" fill="#740c01"/>
    <path id="Path_54" data-name="Path 54" d="M13,8.6a7.6,7.6,0,1,1,15.2,0c0,5.49-6.756,10.136-7.6,16.866C19.758,18.739,13,14.093,13,8.6Z" transform="translate(4019.401 1123.401)" fill="#72caaf"/>
    <path id="Path_55" data-name="Path 55" d="M23,12.209V16.22h2.407V13.011h2.407V16.22H30.22V12.209L26.61,9Z" transform="translate(4013.412 1118.61)" fill="#faefde"/>
    <path id="Path_56" data-name="Path 56" d="M29,19h2.407v3.209H29Z" transform="translate(4009.819 1112.621)" fill="#cda1a7"/>
    <path id="Path_57" data-name="Path 57" d="M23.66,12.275l.006.006a.812.812,0,0,0,1.1.042l2.236-1.916,2.3,1.976a.717.717,0,0,0,.971-.038l.334.067L27.1,9.34Z" transform="translate(4013.017 1118.407)" fill="#efd8be"/>
    <path id="Path_58" data-name="Path 58" d="M20,0a8.012,8.012,0,0,0-8,8c0,2.869,1.728,5.458,3.557,8.2,1.789,2.678,3.638,5.448,4.047,8.715a.4.4,0,0,0,.8,0c.411-3.267,2.259-6.037,4.047-8.717,1.83-2.741,3.558-5.331,3.558-8.2A8.012,8.012,0,0,0,20,0ZM23.78,15.758A26.465,26.465,0,0,0,20,22.905a26.429,26.429,0,0,0-3.778-7.148C14.465,13.121,12.8,10.63,12.8,8A7.2,7.2,0,1,1,27.2,8C27.2,10.63,25.541,13.121,23.78,15.758Z" transform="translate(4020 1124)" fill="#8d6c9f"/>
    <path id="Path_59" data-name="Path 59" d="M28.771,12.728a.4.4,0,1,0,.514-.617L24.471,8.1c-.013-.009-.027-.013-.038-.02a.352.352,0,0,0-.072-.038.294.294,0,0,0-.072-.022.408.408,0,0,0-.075-.008.44.44,0,0,0-.077.008.608.608,0,0,0-.071.022.451.451,0,0,0-.072.038.287.287,0,0,0-.038.02l-4.814,4.011a.4.4,0,0,0,.514.617l.545-.454v2.954h-.4a.4.4,0,1,0,0,.8h8.825a.4.4,0,1,0,0-.8h-.4V12.274Zm-5.359,2.5V12.821h1.6v2.407Zm4.011-3.61v3.61h-1.6V12.821a.8.8,0,0,0-.8-.8h-1.6a.8.8,0,0,0-.8.8v2.407h-1.6v-3.61s0-.006,0-.011L24.214,8.93l3.211,2.676S27.423,11.612,27.423,11.617Z" transform="translate(4015.808 1119.202)" fill="#8d6c9f"/>
    <path id="Path_60" data-name="Path 60" d="M26.4,30a.4.4,0,0,0-.4.4v.8a.4.4,0,0,0,.8,0v-.8A.4.4,0,0,0,26.4,30Z" transform="translate(4011.616 1106.034)" fill="#faefde"/>
    <path id="Path_61" data-name="Path 61" d="M21.4,30a.4.4,0,0,0-.4.4v.8a.4.4,0,0,0,.8,0v-.8A.4.4,0,0,0,21.4,30Z" transform="translate(4014.61 1106.034)" fill="#faefde"/>
    <path id="Path_62" data-name="Path 62" d="M31.4,30a.4.4,0,0,0-.4.4v.8a.4.4,0,1,0,.8,0v-.8A.4.4,0,0,0,31.4,30Z" transform="translate(4008.621 1106.034)" fill="#faefde"/>
    <path id="Path_63" data-name="Path 63" d="M36.4,30a.4.4,0,0,0-.4.4v.8a.4.4,0,1,0,.8,0v-.8A.4.4,0,0,0,36.4,30Z" transform="translate(4005.627 1106.034)" fill="#faefde"/>
    <path id="Path_64" data-name="Path 64" d="M41.4,30a.4.4,0,0,0-.4.4v.8a.4.4,0,1,0,.8,0v-.8A.4.4,0,0,0,41.4,30Z" transform="translate(4002.633 1106.034)" fill="#faefde"/>
    <circle id="Ellipse_3-2" data-name="Ellipse 3" cx="20" cy="20" r="20" transform="translate(4020 1117)" fill="#740c01"/>
    <path id="Path_54-2" data-name="Path 54" d="M13,8.6a7.6,7.6,0,1,1,15.2,0c0,5.49-6.756,10.136-7.6,16.866C19.758,18.739,13,14.093,13,8.6Z" transform="translate(4019.401 1123.401)" fill="#72caaf"/>
    <path id="Path_55-2" data-name="Path 55" d="M23,12.209V16.22h2.407V13.011h2.407V16.22H30.22V12.209L26.61,9Z" transform="translate(4013.412 1118.61)" fill="#faefde"/>
    <path id="Path_56-2" data-name="Path 56" d="M29,19h2.407v3.209H29Z" transform="translate(4009.819 1112.621)" fill="#cda1a7"/>
    <path id="Path_57-2" data-name="Path 57" d="M23.66,12.275l.006.006a.812.812,0,0,0,1.1.042l2.236-1.916,2.3,1.976a.717.717,0,0,0,.971-.038l.334.067L27.1,9.34Z" transform="translate(4013.017 1118.407)" fill="#efd8be"/>
    <path id="Path_58-2" data-name="Path 58" d="M20,0a8.012,8.012,0,0,0-8,8c0,2.869,1.728,5.458,3.557,8.2,1.789,2.678,3.638,5.448,4.047,8.715a.4.4,0,0,0,.8,0c.411-3.267,2.259-6.037,4.047-8.717,1.83-2.741,3.558-5.331,3.558-8.2A8.012,8.012,0,0,0,20,0ZM23.78,15.758A26.465,26.465,0,0,0,20,22.905a26.429,26.429,0,0,0-3.778-7.148C14.465,13.121,12.8,10.63,12.8,8A7.2,7.2,0,1,1,27.2,8C27.2,10.63,25.541,13.121,23.78,15.758Z" transform="translate(4020 1124)" fill="#8d6c9f"/>
    <path id="Path_59-2" data-name="Path 59" d="M28.771,12.728a.4.4,0,1,0,.514-.617L24.471,8.1c-.013-.009-.027-.013-.038-.02a.352.352,0,0,0-.072-.038.294.294,0,0,0-.072-.022.408.408,0,0,0-.075-.008.44.44,0,0,0-.077.008.608.608,0,0,0-.071.022.451.451,0,0,0-.072.038.287.287,0,0,0-.038.02l-4.814,4.011a.4.4,0,0,0,.514.617l.545-.454v2.954h-.4a.4.4,0,1,0,0,.8h8.825a.4.4,0,1,0,0-.8h-.4V12.274Zm-5.359,2.5V12.821h1.6v2.407Zm4.011-3.61v3.61h-1.6V12.821a.8.8,0,0,0-.8-.8h-1.6a.8.8,0,0,0-.8.8v2.407h-1.6v-3.61s0-.006,0-.011L24.214,8.93l3.211,2.676S27.423,11.612,27.423,11.617Z" transform="translate(4015.808 1119.202)" fill="#8d6c9f"/>
    <path id="Path_60-2" data-name="Path 60" d="M26.4,30a.4.4,0,0,0-.4.4v.8a.4.4,0,0,0,.8,0v-.8A.4.4,0,0,0,26.4,30Z" transform="translate(4011.616 1106.034)" fill="#faefde"/>
    <path id="Path_61-2" data-name="Path 61" d="M21.4,30a.4.4,0,0,0-.4.4v.8a.4.4,0,0,0,.8,0v-.8A.4.4,0,0,0,21.4,30Z" transform="translate(4014.61 1106.034)" fill="#faefde"/>
    <path id="Path_62-2" data-name="Path 62" d="M31.4,30a.4.4,0,0,0-.4.4v.8a.4.4,0,1,0,.8,0v-.8A.4.4,0,0,0,31.4,30Z" transform="translate(4008.621 1106.034)" fill="#faefde"/>
    <path id="Path_63-2" data-name="Path 63" d="M36.4,30a.4.4,0,0,0-.4.4v.8a.4.4,0,1,0,.8,0v-.8A.4.4,0,0,0,36.4,30Z" transform="translate(4005.627 1106.034)" fill="#faefde"/>
    <path id="Path_64-2" data-name="Path 64" d="M41.4,30a.4.4,0,0,0-.4.4v.8a.4.4,0,1,0,.8,0v-.8A.4.4,0,0,0,41.4,30Z" transform="translate(4002.633 1106.034)" fill="#faefde"/>
  </g>
</svg>
