<svg xmlns="http://www.w3.org/2000/svg" width="96" height="96" viewBox="0 0 96 96">
  <g id="hostel.finder" transform="translate(0.181 0.277)">
    <circle id="Ellipse_3" data-name="Ellipse 3" cx="48" cy="48" r="48" transform="translate(-0.181 -0.277)" fill="#a1a1a1"/>
    <g id="Group_139" data-name="Group 139" transform="translate(26.213 16.681)">
      <path id="Path_54" data-name="Path 54" d="M13,19.117a18.115,18.115,0,1,1,36.23,0c0,13.084-16.1,24.155-18.117,40.192C29.1,43.272,13,32.2,13,19.117Z" transform="translate(-12.044 -0.044)" fill="#7bbeeb" opacity="0.9"/>
      <path id="Path_55" data-name="Path 55" d="M23,16.647v9.559h5.735V18.559h5.735v7.647h5.735V16.647L31.6,9Z" transform="translate(-12.485 -0.397)" fill="#faefde"/>
      <path id="Path_56" data-name="Path 56" d="M29,19h5.735v7.647H29Z" transform="translate(-12.75 -0.838)" fill="#cda1a7"/>
      <path id="Path_57" data-name="Path 57" d="M23.66,16.334l.015.015a1.935,1.935,0,0,0,2.629.1l5.328-4.567,5.493,4.708a1.709,1.709,0,0,0,2.315-.09l.8.161L31.86,9.34Z" transform="translate(-12.514 -0.412)" fill="#efd8be"/>
      <path id="Path_58" data-name="Path 58" d="M31.073,0A19.092,19.092,0,0,0,12,19.073c0,6.837,4.119,13.005,8.476,19.54,4.264,6.381,8.67,12.983,9.645,20.768a.956.956,0,0,0,1.9,0C33,51.6,37.4,45,41.662,38.612c4.361-6.531,8.48-12.7,8.48-19.54A19.091,19.091,0,0,0,31.073,0Zm9,37.552c-3.547,5.317-7.191,10.776-9,17.03-1.807-6.254-5.455-11.717-9-17.034-4.193-6.281-8.155-12.217-8.155-18.475a17.159,17.159,0,1,1,34.318,0C48.23,25.331,44.268,31.268,40.072,37.552Z" transform="translate(-12)" fill="#8d6c9f"/>
      <path id="Path_59" data-name="Path 59" d="M42.285,19.251a.957.957,0,1,0,1.225-1.471L32.039,8.221c-.03-.022-.063-.03-.09-.049a.839.839,0,0,0-.172-.09.7.7,0,0,0-.172-.052.973.973,0,0,0-.179-.019,1.049,1.049,0,0,0-.183.019,1.45,1.45,0,0,0-.168.052,1.076,1.076,0,0,0-.172.09.684.684,0,0,0-.09.049L19.344,17.78a.957.957,0,0,0,1.225,1.471l1.3-1.083v7.038h-.956a.956.956,0,1,0,0,1.912H41.941a.956.956,0,1,0,0-1.912h-.956V18.168Zm-12.77,5.956V19.471h3.824v5.735Zm9.559-8.6v8.6H35.25V19.471a1.915,1.915,0,0,0-1.912-1.912H29.515A1.915,1.915,0,0,0,27.6,19.471v5.735H23.779V16.6c0-.011,0-.015,0-.026L31.426,10.2l7.651,6.378C39.077,16.589,39.073,16.592,39.073,16.6Z" transform="translate(-12.309 -0.353)" fill="#8d6c9f"/>
      <path id="Path_60" data-name="Path 60" d="M26.956,30a.955.955,0,0,0-.956.956v1.912a.956.956,0,0,0,1.912,0V30.956A.955.955,0,0,0,26.956,30Z" transform="translate(-12.618 -1.324)" fill="#faefde"/>
      <path id="Path_61" data-name="Path 61" d="M21.956,30a.955.955,0,0,0-.956.956v1.912a.956.956,0,0,0,1.912,0V30.956A.955.955,0,0,0,21.956,30Z" transform="translate(-12.397 -1.324)" fill="#faefde"/>
      <path id="Path_62" data-name="Path 62" d="M31.956,30a.955.955,0,0,0-.956.956v1.912a.956.956,0,0,0,1.912,0V30.956A.955.955,0,0,0,31.956,30Z" transform="translate(-12.838 -1.324)" fill="#faefde"/>
      <path id="Path_63" data-name="Path 63" d="M36.956,30a.955.955,0,0,0-.956.956v1.912a.956.956,0,1,0,1.912,0V30.956A.955.955,0,0,0,36.956,30Z" transform="translate(-13.059 -1.324)" fill="#faefde"/>
      <path id="Path_64" data-name="Path 64" d="M41.956,30a.955.955,0,0,0-.956.956v1.912a.956.956,0,1,0,1.912,0V30.956A.955.955,0,0,0,41.956,30Z" transform="translate(-13.279 -1.324)" fill="#faefde"/>
    </g>
  </g>
</svg>
