<svg xmlns="http://www.w3.org/2000/svg" width="96" height="96" viewBox="0 0 96 96">
  <g id="news" transform="translate(0.181 0.255)">
    <circle id="Ellipse_3" data-name="Ellipse 3" cx="48" cy="48" r="48" transform="translate(-0.181 -0.255)" fill="#a1a1a1"/>
    <g id="Group_136" data-name="Group 136" transform="translate(21.447 26.213)">
      <path id="Path_65" data-name="Path 65" d="M55.618,7V37.135a3.627,3.627,0,0,1-1.059,2.56L46.734,47.52a3.627,3.627,0,0,1-2.56,1.059H6.808A1.809,1.809,0,0,1,5,46.771V7L8.616,9.712,12.231,7l3.616,2.712L19.462,7l3.616,2.712L26.693,7l3.616,2.712L33.924,7l3.488,2.613.127.1L41.155,7l1.4,1.059L44.365,9.44l.406.272L48.387,7l3.425,2.577L52,9.712Z" transform="translate(-4.096 -6.096)" fill="#faefde"/>
      <path id="Path_66" data-name="Path 66" d="M49,50.943V42.808A1.807,1.807,0,0,1,50.808,41h8.135l.561.434-9.3,9.508Z" transform="translate(-8.325 -9.364)" fill="#bbdef9"/>
      <path id="Path_67" data-name="Path 67" d="M56.791,9.211V28.1L36.1,48.791H17.211Z" transform="translate(-5.269 -6.309)" fill="#fff7f0"/>
      <path id="Path_68" data-name="Path 68" d="M51.839,9.577l-39,39H5.289L44.428,9.44l.371.272L48.414,7Z" transform="translate(-4.124 -6.096)" fill="#fff7f0"/>
      <path id="Path_69" data-name="Path 69" d="M42.557,8.059,5,45.606v-3.58L37.413,9.613l.127.1L41.155,7Z" transform="translate(-4.096 -6.096)" fill="#fff7f0"/>
      <path id="Path_70" data-name="Path 70" d="M11,25H29.078V39.462H11Z" transform="translate(-4.673 -7.826)" fill="#7bbeeb"/>
      <path id="Path_71" data-name="Path 71" d="M11,15H50.771v3.616H11Z" transform="translate(-4.673 -6.865)" fill="#bbdef9"/>
      <path id="Path_72" data-name="Path 72" d="M11,15H30.886v3.616H11Z" transform="translate(-4.673 -6.865)" fill="#85cbf8"/>
      <path id="Path_73" data-name="Path 73" d="M55.928,6.1a.9.9,0,0,0-.9.081L51.906,8.486,48.834,6.18a.911.911,0,0,0-1.088,0L44.675,8.486,41.6,6.18a.911.911,0,0,0-1.088,0L37.444,8.486,34.372,6.18a.911.911,0,0,0-1.088,0L30.213,8.486,27.141,6.18a.911.911,0,0,0-1.088,0L22.982,8.486,19.91,6.18a.911.911,0,0,0-1.088,0L15.751,8.486,12.679,6.18a.911.911,0,0,0-1.088,0L8.519,8.486,5.448,6.18A.906.906,0,0,0,4,6.9V46.675a2.712,2.712,0,0,0,2.712,2.712H44.078a4.506,4.506,0,0,0,3.2-1.32L55.1,40.238a4.506,4.506,0,0,0,1.32-3.2V6.9A.908.908,0,0,0,55.928,6.1Zm-2.1,32.858L46,46.784a2.756,2.756,0,0,1-.417.342V39.444a.906.906,0,0,1,.9-.9h7.683A2.755,2.755,0,0,1,53.823,38.957Zm.794-2.224H46.483a2.712,2.712,0,0,0-2.712,2.712v8.135H6.712a.906.906,0,0,1-.9-.9V8.712l2.168,1.628a.911.911,0,0,0,1.087,0l3.072-2.306,3.072,2.306a.911.911,0,0,0,1.088,0l3.072-2.306,3.072,2.306a.911.911,0,0,0,1.088,0L26.6,8.034l3.072,2.306a.911.911,0,0,0,1.088,0l3.072-2.306L36.9,10.339a.911.911,0,0,0,1.088,0l3.072-2.306,3.072,2.306a.911.911,0,0,0,1.088,0L48.29,8.034l3.072,2.306a.911.911,0,0,0,1.088,0l2.168-1.628Z" transform="translate(-4 -6)" fill="#8d6c9f"/>
      <path id="Path_74" data-name="Path 74" d="M28.982,24H10.9a.906.906,0,0,0-.9.9V39.366a.906.906,0,0,0,.9.9H28.982a.906.906,0,0,0,.9-.9V24.9A.906.906,0,0,0,28.982,24Zm-.9,14.462H11.808V25.808h16.27Z" transform="translate(-4.577 -7.73)" fill="#8d6c9f"/>
      <path id="Path_75" data-name="Path 75" d="M50.675,14H10.9a.906.906,0,0,0-.9.9v3.616a.906.906,0,0,0,.9.9H50.675a.906.906,0,0,0,.9-.9V14.9A.906.906,0,0,0,50.675,14Zm-.9,3.616H11.808V15.808H49.771Z" transform="translate(-4.577 -6.769)" fill="#8d6c9f"/>
      <path id="Path_76" data-name="Path 76" d="M36.9,25.808H49.558a.9.9,0,0,0,0-1.808H36.9a.9.9,0,1,0,0,1.808Z" transform="translate(-7.076 -7.73)" fill="#8d6c9f"/>
      <path id="Path_77" data-name="Path 77" d="M52.712,33.808a.9.9,0,1,0,0-1.808H50.9a.9.9,0,1,0,0,1.808Z" transform="translate(-8.421 -8.499)" fill="#8d6c9f"/>
      <path id="Path_78" data-name="Path 78" d="M36.9,33.808h9.039a.9.9,0,0,0,0-1.808H36.9a.9.9,0,1,0,0,1.808Z" transform="translate(-7.076 -8.499)" fill="#8d6c9f"/>
      <path id="Path_79" data-name="Path 79" d="M44.135,40H36.9a.9.9,0,1,0,0,1.808h7.231a.9.9,0,1,0,0-1.808Z" transform="translate(-7.076 -9.268)" fill="#8d6c9f"/>
      <path id="Path_80" data-name="Path 80" d="M53.174,28H36.9a.9.9,0,1,0,0,1.808h16.27a.9.9,0,0,0,0-1.808Z" transform="translate(-7.076 -8.114)" fill="#8d6c9f"/>
      <path id="Path_81" data-name="Path 81" d="M53.174,36H36.9a.9.9,0,1,0,0,1.808h16.27a.9.9,0,1,0,0-1.808Z" transform="translate(-7.076 -8.883)" fill="#8d6c9f"/>
      <path id="Path_82" data-name="Path 82" d="M10.9,44a.906.906,0,0,0-.9.9v1.808a.9.9,0,0,0,1.808,0V44.9A.906.906,0,0,0,10.9,44Z" transform="translate(-4.577 -9.652)" fill="#8d6c9f"/>
      <path id="Path_83" data-name="Path 83" d="M15.9,44a.906.906,0,0,0-.9.9v1.808a.9.9,0,0,0,1.808,0V44.9A.906.906,0,0,0,15.9,44Z" transform="translate(-5.057 -9.652)" fill="#8d6c9f"/>
      <path id="Path_84" data-name="Path 84" d="M20.9,44a.906.906,0,0,0-.9.9v1.808a.9.9,0,0,0,1.808,0V44.9A.906.906,0,0,0,20.9,44Z" transform="translate(-5.538 -9.652)" fill="#8d6c9f"/>
      <path id="Path_85" data-name="Path 85" d="M25.9,44a.906.906,0,0,0-.9.9v1.808a.9.9,0,0,0,1.808,0V44.9A.906.906,0,0,0,25.9,44Z" transform="translate(-6.019 -9.652)" fill="#8d6c9f"/>
      <path id="Path_86" data-name="Path 86" d="M30.9,44a.906.906,0,0,0-.9.9v1.808a.9.9,0,0,0,1.808,0V44.9A.906.906,0,0,0,30.9,44Z" transform="translate(-6.5 -9.652)" fill="#8d6c9f"/>
      <path id="Path_87" data-name="Path 87" d="M20.525,37.039a4.519,4.519,0,0,0,4.519-4.519.906.906,0,0,0-.9-.9H21.428a.9.9,0,0,0,0,1.808h1.652a2.709,2.709,0,1,1-1.264-3.291.914.914,0,1,0,.9-1.589,4.519,4.519,0,1,0-2.2,8.5Z" transform="translate(-5.159 -8.115)" fill="#faefde"/>
    </g>
  </g>
</svg>
