<svg xmlns="http://www.w3.org/2000/svg" width="40" height="40" viewBox="0 0 40 40">
  <g id="news_announcement_icon" transform="translate(-4020 -1224)">
    <circle id="Ellipse_3" data-name="Ellipse 3" cx="20" cy="20" r="20" transform="translate(4020 1224)" fill="#740c01"/>
    <path id="Path_65" data-name="Path 65" d="M26.241,7V19.646A1.522,1.522,0,0,1,25.8,20.72L22.513,24a1.522,1.522,0,0,1-1.074.445H5.759A.759.759,0,0,1,5,23.69V7L6.517,8.138,8.034,7,9.552,8.138,11.069,7l1.517,1.138L14.1,7l1.517,1.138L17.138,7,18.6,8.1l.053.041L20.172,7l.588.445.759.579.17.114L23.207,7l1.437,1.082.08.056Z" transform="translate(4024.379 1228.379)" fill="#faefde"/>
    <path id="Path_66" data-name="Path 66" d="M49,45.172V41.759A.758.758,0,0,1,49.759,41h3.414l.236.182-3.9,3.99Z" transform="translate(3997.069 1207.276)" fill="#bbdef9"/>
    <path id="Path_67" data-name="Path 67" d="M33.821,9.211v7.927l-8.683,8.683H17.211Z" transform="translate(4016.8 1227.007)" fill="#fff7f0"/>
    <path id="Path_68" data-name="Path 68" d="M24.824,8.082,8.457,24.448H5.289L21.713,8.024l.156.114L23.386,7Z" transform="translate(4024.2 1228.379)" fill="#fff7f0"/>
    <path id="Path_69" data-name="Path 69" d="M20.761,7.445,5,23.2V21.7L18.6,8.1l.053.041L20.172,7Z" transform="translate(4024.379 1228.379)" fill="#fff7f0"/>
    <path id="Path_70" data-name="Path 70" d="M11,25h7.586v6.069H11Z" transform="translate(4020.655 1217.207)" fill="#7bbeeb"/>
    <path id="Path_71" data-name="Path 71" d="M11,15H27.69v1.517H11Z" transform="translate(4020.655 1223.414)" fill="#bbdef9"/>
    <path id="Path_72" data-name="Path 72" d="M11,15h8.345v1.517H11Z" transform="translate(4020.655 1223.414)" fill="#85cbf8"/>
    <path id="Path_73" data-name="Path 73" d="M25.791,6.041a.379.379,0,0,0-.379.034L24.1,7.043l-1.289-.968a.382.382,0,0,0-.456,0l-1.289.968L19.78,6.076a.382.382,0,0,0-.456,0l-1.289.968-1.289-.968a.382.382,0,0,0-.456,0L15,7.043l-1.289-.968a.382.382,0,0,0-.456,0l-1.289.968-1.289-.968a.382.382,0,0,0-.456,0l-1.289.968L7.642,6.076a.382.382,0,0,0-.456,0L5.9,7.043,4.607,6.076a.38.38,0,0,0-.607.3v16.69a1.138,1.138,0,0,0,1.138,1.138H20.819a1.891,1.891,0,0,0,1.342-.554l3.285-3.285A1.891,1.891,0,0,0,26,19.025V6.379A.381.381,0,0,0,25.791,6.041ZM24.908,19.83l-3.285,3.285a1.156,1.156,0,0,1-.175.144V20.034a.38.38,0,0,1,.379-.379h3.224A1.156,1.156,0,0,1,24.908,19.83Zm.333-.933H21.828a1.138,1.138,0,0,0-1.138,1.138v3.414H5.138a.38.38,0,0,1-.379-.379V7.138l.91.683a.382.382,0,0,0,.456,0l1.289-.968L8.7,7.821a.382.382,0,0,0,.456,0l1.289-.968,1.289.968a.382.382,0,0,0,.456,0l1.289-.968,1.289.968a.382.382,0,0,0,.456,0l1.289-.968,1.289.968a.382.382,0,0,0,.456,0l1.289-.968,1.289.968a.382.382,0,0,0,.456,0l1.289-.968,1.289.968a.382.382,0,0,0,.456,0l.91-.683Z" transform="translate(4025 1229)" fill="#8d6c9f"/>
    <path id="Path_74" data-name="Path 74" d="M17.966,24H10.379a.38.38,0,0,0-.379.379v6.069a.38.38,0,0,0,.379.379h7.586a.38.38,0,0,0,.379-.379V24.379A.38.38,0,0,0,17.966,24Zm-.379,6.069H10.759v-5.31h6.828Z" transform="translate(4021.276 1217.828)" fill="#8d6c9f"/>
    <path id="Path_75" data-name="Path 75" d="M27.069,14H10.379a.38.38,0,0,0-.379.379V15.9a.38.38,0,0,0,.379.379h16.69a.38.38,0,0,0,.379-.379V14.379A.38.38,0,0,0,27.069,14Zm-.379,1.517H10.759v-.759H26.69Z" transform="translate(4021.276 1224.034)" fill="#8d6c9f"/>
    <path id="Path_76" data-name="Path 76" d="M36.379,24.759h5.31a.379.379,0,0,0,0-.759h-5.31a.379.379,0,1,0,0,.759Z" transform="translate(4005.138 1217.828)" fill="#8d6c9f"/>
    <path id="Path_77" data-name="Path 77" d="M51.138,32.759a.379.379,0,1,0,0-.759h-.759a.379.379,0,1,0,0,.759Z" transform="translate(3996.448 1212.862)" fill="#8d6c9f"/>
    <path id="Path_78" data-name="Path 78" d="M36.379,32.759h3.793a.379.379,0,0,0,0-.759H36.379a.379.379,0,1,0,0,.759Z" transform="translate(4005.138 1212.862)" fill="#8d6c9f"/>
    <path id="Path_79" data-name="Path 79" d="M39.414,40H36.379a.379.379,0,1,0,0,.759h3.034a.379.379,0,1,0,0-.759Z" transform="translate(4005.138 1207.896)" fill="#8d6c9f"/>
    <path id="Path_80" data-name="Path 80" d="M43.207,28H36.379a.379.379,0,0,0,0,.759h6.828a.379.379,0,0,0,0-.759Z" transform="translate(4005.138 1215.345)" fill="#8d6c9f"/>
    <path id="Path_81" data-name="Path 81" d="M43.207,36H36.379a.379.379,0,1,0,0,.759h6.828a.379.379,0,1,0,0-.759Z" transform="translate(4005.138 1210.379)" fill="#8d6c9f"/>
    <path id="Path_82" data-name="Path 82" d="M10.379,44a.38.38,0,0,0-.379.379v.759a.379.379,0,1,0,.759,0v-.759A.38.38,0,0,0,10.379,44Z" transform="translate(4021.276 1205.414)" fill="#8d6c9f"/>
    <path id="Path_83" data-name="Path 83" d="M15.379,44a.38.38,0,0,0-.379.379v.759a.379.379,0,1,0,.759,0v-.759A.38.38,0,0,0,15.379,44Z" transform="translate(4018.172 1205.414)" fill="#8d6c9f"/>
    <path id="Path_84" data-name="Path 84" d="M20.379,44a.38.38,0,0,0-.379.379v.759a.379.379,0,1,0,.759,0v-.759A.38.38,0,0,0,20.379,44Z" transform="translate(4015.069 1205.414)" fill="#8d6c9f"/>
    <path id="Path_85" data-name="Path 85" d="M25.379,44a.38.38,0,0,0-.379.379v.759a.379.379,0,1,0,.759,0v-.759A.38.38,0,0,0,25.379,44Z" transform="translate(4011.966 1205.414)" fill="#8d6c9f"/>
    <path id="Path_86" data-name="Path 86" d="M30.379,44a.38.38,0,0,0-.379.379v.759a.379.379,0,1,0,.759,0v-.759A.38.38,0,0,0,30.379,44Z" transform="translate(4008.862 1205.414)" fill="#8d6c9f"/>
    <path id="Path_87" data-name="Path 87" d="M17.93,31.793a1.9,1.9,0,0,0,1.9-1.9.38.38,0,0,0-.379-.379H18.309a.379.379,0,0,0,0,.759H19a1.137,1.137,0,1,1-.53-1.381.384.384,0,1,0,.379-.667,1.9,1.9,0,1,0-.922,3.565Z" transform="translate(4017.518 1215.345)" fill="#faefde"/>
    <circle id="Ellipse_3-2" data-name="Ellipse 3" cx="20" cy="20" r="20" transform="translate(4020 1224)" fill="#740c01"/>
    <path id="Path_65-2" data-name="Path 65" d="M26.241,7V19.646A1.522,1.522,0,0,1,25.8,20.72L22.513,24a1.522,1.522,0,0,1-1.074.445H5.759A.759.759,0,0,1,5,23.69V7L6.517,8.138,8.034,7,9.552,8.138,11.069,7l1.517,1.138L14.1,7l1.517,1.138L17.138,7,18.6,8.1l.053.041L20.172,7l.588.445.759.579.17.114L23.207,7l1.437,1.082.08.056Z" transform="translate(4024.379 1228.379)" fill="#faefde"/>
    <path id="Path_66-2" data-name="Path 66" d="M49,45.172V41.759A.758.758,0,0,1,49.759,41h3.414l.236.182-3.9,3.99Z" transform="translate(3997.069 1207.276)" fill="#bbdef9"/>
    <path id="Path_67-2" data-name="Path 67" d="M33.821,9.211v7.927l-8.683,8.683H17.211Z" transform="translate(4016.8 1227.007)" fill="#fff7f0"/>
    <path id="Path_68-2" data-name="Path 68" d="M24.824,8.082,8.457,24.448H5.289L21.713,8.024l.156.114L23.386,7Z" transform="translate(4024.2 1228.379)" fill="#fff7f0"/>
    <path id="Path_69-2" data-name="Path 69" d="M20.761,7.445,5,23.2V21.7L18.6,8.1l.053.041L20.172,7Z" transform="translate(4024.379 1228.379)" fill="#fff7f0"/>
    <path id="Path_70-2" data-name="Path 70" d="M11,25h7.586v6.069H11Z" transform="translate(4020.655 1217.207)" fill="#7bbeeb"/>
    <path id="Path_71-2" data-name="Path 71" d="M11,15H27.69v1.517H11Z" transform="translate(4020.655 1223.414)" fill="#bbdef9"/>
    <path id="Path_72-2" data-name="Path 72" d="M11,15h8.345v1.517H11Z" transform="translate(4020.655 1223.414)" fill="#85cbf8"/>
    <path id="Path_73-2" data-name="Path 73" d="M25.791,6.041a.379.379,0,0,0-.379.034L24.1,7.043l-1.289-.968a.382.382,0,0,0-.456,0l-1.289.968L19.78,6.076a.382.382,0,0,0-.456,0l-1.289.968-1.289-.968a.382.382,0,0,0-.456,0L15,7.043l-1.289-.968a.382.382,0,0,0-.456,0l-1.289.968-1.289-.968a.382.382,0,0,0-.456,0l-1.289.968L7.642,6.076a.382.382,0,0,0-.456,0L5.9,7.043,4.607,6.076a.38.38,0,0,0-.607.3v16.69a1.138,1.138,0,0,0,1.138,1.138H20.819a1.891,1.891,0,0,0,1.342-.554l3.285-3.285A1.891,1.891,0,0,0,26,19.025V6.379A.381.381,0,0,0,25.791,6.041ZM24.908,19.83l-3.285,3.285a1.156,1.156,0,0,1-.175.144V20.034a.38.38,0,0,1,.379-.379h3.224A1.156,1.156,0,0,1,24.908,19.83Zm.333-.933H21.828a1.138,1.138,0,0,0-1.138,1.138v3.414H5.138a.38.38,0,0,1-.379-.379V7.138l.91.683a.382.382,0,0,0,.456,0l1.289-.968L8.7,7.821a.382.382,0,0,0,.456,0l1.289-.968,1.289.968a.382.382,0,0,0,.456,0l1.289-.968,1.289.968a.382.382,0,0,0,.456,0l1.289-.968,1.289.968a.382.382,0,0,0,.456,0l1.289-.968,1.289.968a.382.382,0,0,0,.456,0l1.289-.968,1.289.968a.382.382,0,0,0,.456,0l.91-.683Z" transform="translate(4025 1229)" fill="#8d6c9f"/>
    <path id="Path_74-2" data-name="Path 74" d="M17.966,24H10.379a.38.38,0,0,0-.379.379v6.069a.38.38,0,0,0,.379.379h7.586a.38.38,0,0,0,.379-.379V24.379A.38.38,0,0,0,17.966,24Zm-.379,6.069H10.759v-5.31h6.828Z" transform="translate(4021.276 1217.828)" fill="#8d6c9f"/>
    <path id="Path_75-2" data-name="Path 75" d="M27.069,14H10.379a.38.38,0,0,0-.379.379V15.9a.38.38,0,0,0,.379.379h16.69a.38.38,0,0,0,.379-.379V14.379A.38.38,0,0,0,27.069,14Zm-.379,1.517H10.759v-.759H26.69Z" transform="translate(4021.276 1224.034)" fill="#8d6c9f"/>
    <path id="Path_76-2" data-name="Path 76" d="M36.379,24.759h5.31a.379.379,0,0,0,0-.759h-5.31a.379.379,0,1,0,0,.759Z" transform="translate(4005.138 1217.828)" fill="#8d6c9f"/>
    <path id="Path_77-2" data-name="Path 77" d="M51.138,32.759a.379.379,0,1,0,0-.759h-.759a.379.379,0,1,0,0,.759Z" transform="translate(3996.448 1212.862)" fill="#8d6c9f"/>
    <path id="Path_78-2" data-name="Path 78" d="M36.379,32.759h3.793a.379.379,0,0,0,0-.759H36.379a.379.379,0,1,0,0,.759Z" transform="translate(4005.138 1212.862)" fill="#8d6c9f"/>
    <path id="Path_79-2" data-name="Path 79" d="M39.414,40H36.379a.379.379,0,1,0,0,.759h3.034a.379.379,0,1,0,0-.759Z" transform="translate(4005.138 1207.896)" fill="#8d6c9f"/>
    <path id="Path_80-2" data-name="Path 80" d="M43.207,28H36.379a.379.379,0,0,0,0,.759h6.828a.379.379,0,0,0,0-.759Z" transform="translate(4005.138 1215.345)" fill="#8d6c9f"/>
    <path id="Path_81-2" data-name="Path 81" d="M43.207,36H36.379a.379.379,0,1,0,0,.759h6.828a.379.379,0,1,0,0-.759Z" transform="translate(4005.138 1210.379)" fill="#8d6c9f"/>
    <path id="Path_82-2" data-name="Path 82" d="M10.379,44a.38.38,0,0,0-.379.379v.759a.379.379,0,1,0,.759,0v-.759A.38.38,0,0,0,10.379,44Z" transform="translate(4021.276 1205.414)" fill="#8d6c9f"/>
    <path id="Path_83-2" data-name="Path 83" d="M15.379,44a.38.38,0,0,0-.379.379v.759a.379.379,0,1,0,.759,0v-.759A.38.38,0,0,0,15.379,44Z" transform="translate(4018.172 1205.414)" fill="#8d6c9f"/>
    <path id="Path_84-2" data-name="Path 84" d="M20.379,44a.38.38,0,0,0-.379.379v.759a.379.379,0,1,0,.759,0v-.759A.38.38,0,0,0,20.379,44Z" transform="translate(4015.069 1205.414)" fill="#8d6c9f"/>
    <path id="Path_85-2" data-name="Path 85" d="M25.379,44a.38.38,0,0,0-.379.379v.759a.379.379,0,1,0,.759,0v-.759A.38.38,0,0,0,25.379,44Z" transform="translate(4011.966 1205.414)" fill="#8d6c9f"/>
    <path id="Path_86-2" data-name="Path 86" d="M30.379,44a.38.38,0,0,0-.379.379v.759a.379.379,0,1,0,.759,0v-.759A.38.38,0,0,0,30.379,44Z" transform="translate(4008.862 1205.414)" fill="#8d6c9f"/>
    <path id="Path_87-2" data-name="Path 87" d="M17.93,31.793a1.9,1.9,0,0,0,1.9-1.9.38.38,0,0,0-.379-.379H18.309a.379.379,0,0,0,0,.759H19a1.137,1.137,0,1,1-.53-1.381.384.384,0,1,0,.379-.667,1.9,1.9,0,1,0-.922,3.565Z" transform="translate(4017.518 1215.345)" fill="#faefde"/>
  </g>
</svg>
