<svg xmlns="http://www.w3.org/2000/svg" width="39" height="26.065" viewBox="0 0 39 26.065">
  <g id="Profile" transform="translate(0 0)">
    <g id="Big_Profile" data-name="Big Profile">
      <path id="Path_1" data-name="Path 1" d="M12.533,0A12.8,12.8,0,0,0,0,13.035,12.8,12.8,0,0,0,12.533,26.065,12.8,12.8,0,0,0,25.062,13.035,12.8,12.8,0,0,0,12.533,0Zm0,2a10.809,10.809,0,0,1,10.6,11.031,11.235,11.235,0,0,1-2.772,7.424c-.723-1.384-2.848-2.517-5.119-3.01a.961.961,0,0,1-.6-1.408,5.616,5.616,0,0,0,1.086-2.195,3.222,3.222,0,0,0,1.051-2c.1-1.105-.21-1.221-.21-1.221.386-1.3.489-6.211-2.5-5.607-.482-1.006-3.644-1.8-5.089.907a5.514,5.514,0,0,0-.3,4.6c0,.1-.2-.1-.3.6a4.445,4.445,0,0,0,.6,2.1.986.986,0,0,0,.482.406,5.527,5.527,0,0,0,1.055,2.318,1.408,1.408,0,0,1-.7,1.412c-2.348.489-4.481,1.626-5.211,3.006a11.221,11.221,0,0,1-2.68-7.328A10.81,10.81,0,0,1,12.533,2Z" transform="translate(0 0)" fill="#fff"/>
    </g>
    <path id="Polygon_1" data-name="Polygon 1" d="M4,0,8,8H0Z" transform="translate(39 19) rotate(180)" fill="#fff"/>
  </g>
</svg>
