<svg id="Search_Bar" data-name="Search Bar" xmlns="http://www.w3.org/2000/svg" width="219" height="31" viewBox="0 0 219 31">
  <g id="Path_130" data-name="Path 130" fill="#fcfefe">
    <path d="M 207 30.5 L 12 30.5 C 8.928250312805176 30.5 6.040333271026611 29.30377769470215 3.868277788162231 27.13172149658203 C 1.696222186088562 24.95966720581055 0.5 22.07175064086914 0.5 19 L 0.5 12 C 0.5 8.928250312805176 1.696222186088562 6.040333271026611 3.868277788162231 3.868277788162231 C 6.040333271026611 1.696222186088562 8.928250312805176 0.5 12 0.5 L 207 0.5 C 210.0717468261719 0.5 212.9596710205078 1.696222186088562 215.1317291259766 3.868277788162231 C 217.3037719726563 6.040333271026611 218.5 8.928250312805176 218.5 12 L 218.5 19 C 218.5 22.07175064086914 217.3037719726563 24.95966720581055 215.1317291259766 27.13172149658203 C 212.9596710205078 29.30377769470215 210.0717468261719 30.5 207 30.5 Z" stroke="none"/>
    <path d="M 12 1 C 9.061798095703125 1 6.2994384765625 2.144193649291992 4.221832275390625 4.221834182739258 C 2.144195556640625 6.299444198608398 1 9.061805725097656 1 12 L 1 19 C 1 21.93819427490234 2.144195556640625 24.7005558013916 4.221832275390625 26.77816772460938 C 6.2994384765625 28.85580635070801 9.061798095703125 30 12 30 L 207 30 C 209.9382019042969 30 212.7005615234375 28.85580635070801 214.7781677246094 26.77816772460938 C 216.8558044433594 24.7005558013916 218 21.93819427490234 218 19 L 218 12 C 218 9.061805725097656 216.8558044433594 6.299444198608398 214.7781677246094 4.221834182739258 C 212.7005615234375 2.144193649291992 209.9382019042969 1 207 1 L 12 1 M 12 0 L 207 0 C 213.6274108886719 0 219 5.372583389282227 219 12 L 219 19 C 219 25.62741661071777 213.6274108886719 31 207 31 L 12 31 C 5.372589111328125 31 0 25.62741661071777 0 19 L 0 12 C 0 5.372583389282227 5.372589111328125 0 12 0 Z" stroke="none" fill="#740c01"/>
  </g>
  <g id="surface1" transform="translate(9 7)">
    <path id="Path_3" data-name="Path 3" d="M9.9,3a6.62,6.62,0,0,1,5.133,10.8l5.278,5.278-.952.952-5.278-5.278A6.622,6.622,0,1,1,9.9,3Zm0,1.325a5.3,5.3,0,1,0,5.3,5.3A5.289,5.289,0,0,0,9.9,4.325Z" transform="translate(-3.281 -3)" fill="#740c01" stroke="#740c01" stroke-width="1"/>
  </g>
  <text id="where_" data-name="where?" transform="translate(65 20)" fill="rgba(112,112,112,0.55)" font-size="13" font-family="Arial-ItalicMT, Arial" font-style="italic"><tspan x="-22.76" y="0">Where?</tspan></text>
</svg>
