<svg xmlns="http://www.w3.org/2000/svg" width="25.764" height="27.04" viewBox="0 0 25.764 27.04">
  <g id="SOS" transform="translate(-10.5 -5.5)">
    <path id="Path_13" data-name="Path 13" d="M29.755,47.2h-10.2A2.558,2.558,0,0,1,17,44.653V37H32.305v7.653A2.558,2.558,0,0,1,29.755,47.2Z" transform="translate(-3.184 -15.429)" fill="#fff"/>
    <path id="Path_14" data-name="Path 14" d="M26.878,47.456a12.326,12.326,0,0,1-4.873-.994.761.761,0,1,1,.588-1.4,10.828,10.828,0,0,0,4.285.867,10.987,10.987,0,0,0,6.963-2.5.761.761,0,1,1,.971,1.172A12.5,12.5,0,0,1,26.878,47.456Z" transform="translate(-5.409 -18.487)" fill="#d3d8dd"/>
    <path id="Path_15" data-name="Path 15" d="M32.407,17.2A10.2,10.2,0,1,1,22.2,7,10.2,10.2,0,0,1,32.407,17.2Z" transform="translate(-0.735 -0.735)" fill="#f8db59"/>
    <path id="Path_16" data-name="Path 16" d="M31.265,35.959a.765.765,0,0,1,0-1.531,8.393,8.393,0,0,0,8.163-8.163.765.765,0,0,1,1.531,0A9.961,9.961,0,0,1,31.265,35.959Z" transform="translate(-9.796 -9.796)" fill="#ff6144"/>
    <path id="Path_17" data-name="Path 17" d="M16.52,15.4a.727.727,0,0,1-.383-.1.783.783,0,0,1-.281-1.046,9.5,9.5,0,0,1,3.649-3.6.77.77,0,0,1,.739,1.351,8.074,8.074,0,0,0-3.061,3.011A.77.77,0,0,1,16.52,15.4Z" transform="translate(-2.576 -2.479)" fill="#fff"/>
    <path id="Path_18" data-name="Path 18" d="M14.265,26.882a.751.751,0,0,1-.765-.765v-.179a.766.766,0,0,1,1.531.052v.153A.745.745,0,0,1,14.265,26.882Z" transform="translate(-1.469 -9.648)" fill="#fff"/>
    <path id="Path_19" data-name="Path 19" d="M30.041,27.081a2.041,2.041,0,1,1,2.041-2.041A2.047,2.047,0,0,1,30.041,27.081Zm0-2.551a.51.51,0,1,0,.51.51A.511.511,0,0,0,30.041,24.531Z" transform="translate(-8.572 -8.572)" fill="#ff6144"/>
    <path id="Path_20" data-name="Path 20" d="M36.264,16.469a.765.765,0,0,0-1.531,0A13.2,13.2,0,0,1,29.887,26.7V23.484a10.969,10.969,0,1,0-16.836,0v5.74a3.309,3.309,0,0,0,3.316,3.316h10.2a3.309,3.309,0,0,0,3.316-3.316v-.586A14.806,14.806,0,0,0,36.264,16.469Zm-24.234,0a9.438,9.438,0,1,1,9.438,9.438A9.45,9.45,0,0,1,12.031,16.469ZM28.356,29.223a1.775,1.775,0,0,1-1.786,1.786h-10.2a1.775,1.775,0,0,1-1.786-1.786V26.009a.519.519,0,0,1,.791-.432,10.914,10.914,0,0,0,12.193,0,.511.511,0,0,1,.791.432Z" fill="#444b54"/>
  </g>
</svg>
