<svg xmlns="http://www.w3.org/2000/svg" width="96" height="96" viewBox="0 0 96 96">
  <g id="whistle.blower" transform="translate(0.181 0.255)">
    <circle id="Ellipse_3" data-name="Ellipse 3" cx="48" cy="48" r="48" transform="translate(-0.181 -0.255)" fill="#00923f"/>
    <g id="Group_137" data-name="Group 137" transform="translate(21.347 15.877)">
      <path id="Path_88" data-name="Path 88" d="M32.956,14.184H56.737V0H37.825V3.31H31.206V0H16.548A16.631,16.631,0,0,0,7,3.025L6.523,2.5,4.868.85A2.886,2.886,0,0,0,.85.85a2.886,2.886,0,0,0,0,4.019L3.025,7.044A16.368,16.368,0,0,0,0,16.548a16.548,16.548,0,1,0,33.1,0,16.97,16.97,0,0,0-1.418-6.76" transform="translate(1.943 39.669) rotate(-30)" fill="#fff"/>
      <path id="Path_89" data-name="Path 89" d="M17.967,35.945A17.971,17.971,0,0,1,2.6,8.662L1.23,7.292A4.244,4.244,0,0,1,0,4.266,4.232,4.232,0,0,1,7.233,1.241l1.374,1.37a18.132,18.132,0,0,1,9.36-2.6H32.624a1.391,1.391,0,0,1,1.418,1.418V3.321h3.782V1.429A1.391,1.391,0,0,1,39.243.011H58.156a1.391,1.391,0,0,1,1.418,1.418V15.614a1.391,1.391,0,0,1-1.418,1.418H35.886c0,.332.048.613.048.946A17.959,17.959,0,0,1,17.967,35.945ZM5.3,7.292a1.353,1.353,0,0,1,.517.9,1.329,1.329,0,0,1-.236,1.042,15.337,15.337,0,0,0-2.741,8.747,15.13,15.13,0,0,0,30.26,0,14.6,14.6,0,0,0-1.322-6.195,1.428,1.428,0,1,1,2.6-1.182,19.789,19.789,0,0,1,1.182,3.546h21.18V2.848H40.662V4.739a1.391,1.391,0,0,1-1.418,1.418H32.624a1.391,1.391,0,0,1-1.418-1.418V2.848H17.967a14.968,14.968,0,0,0-8.7,2.741C8.226,6.3,7.469,5.5,6.952,4.88L5.3,3.225a1.376,1.376,0,0,0-1.987,0,1.414,1.414,0,0,0-.473,1.042,1.288,1.288,0,0,0,.425.994Z" transform="translate(0 39.14) rotate(-30)" fill="#444b54"/>
      <path id="Path_90" data-name="Path 90" d="M1.418,8.038A1.391,1.391,0,0,1,0,6.619v-5.2A1.391,1.391,0,0,1,1.418,0,1.391,1.391,0,0,1,2.837,1.418v5.2A1.391,1.391,0,0,1,1.418,8.038Z" transform="translate(20.913 6.332) rotate(-30)" fill="#444b54"/>
      <path id="Path_91" data-name="Path 91" d="M3.774,6.942a1.427,1.427,0,0,1-1.23-.709L.179,2.118A1.446,1.446,0,0,1,.7.182,1.447,1.447,0,0,1,2.64.7L5,4.814a1.452,1.452,0,0,1-.521,1.939A2.028,2.028,0,0,1,3.774,6.942Z" transform="translate(13.028 14.88) rotate(-30)" fill="#444b54"/>
      <path id="Path_92" data-name="Path 92" d="M1.41,6.942A1.347,1.347,0,0,1,.7,6.753,1.452,1.452,0,0,1,.179,4.814L2.544.7A1.447,1.447,0,0,1,4.483.182,1.446,1.446,0,0,1,5,2.118L2.64,6.233A1.54,1.54,0,0,1,1.41,6.942Z" transform="translate(30.226 4.951) rotate(-30)" fill="#444b54"/>
      <path id="Path_93" data-name="Path 93" d="M18.912,9.456A9.456,9.456,0,1,1,9.456,0,9.456,9.456,0,0,1,18.912,9.456Z" transform="translate(11.631 42.265) rotate(-30)" fill="#b8e4ff"/>
      <path id="Path_94" data-name="Path 94" d="M2.837,1.418A1.418,1.418,0,1,1,1.418,0,1.419,1.419,0,0,1,2.837,1.418Z" transform="translate(18.076 1.418) rotate(-30)" fill="#444b54"/>
    </g>
  </g>
</svg>
