<svg xmlns="http://www.w3.org/2000/svg" width="29.192" height="29.488" viewBox="0 0 29.192 29.488">
  <g id="whistle_blower" transform="translate(-5.641 7.654) rotate(-30)">
    <path id="Path_88" data-name="Path 88" d="M15.83,32.952h9.98V27H17.873v1.389H15.1V27H8.944a6.979,6.979,0,0,0-4.009,1.27l-.2-.219-.694-.694a1.193,1.193,0,0,0-1.687,1.687l.913.913A6.869,6.869,0,0,0,2,33.944a6.944,6.944,0,1,0,13.889,0,7.121,7.121,0,0,0-.6-2.837" transform="translate(-0.905 -15.984)" fill="#fff"/>
    <path id="Path_89" data-name="Path 89" d="M8.04,40.572A7.542,7.542,0,0,1,1.591,29.123l-.575-.575a1.788,1.788,0,0,1,2.519-2.539l.577.575A7.609,7.609,0,0,1,8.04,25.493H14.19a.584.584,0,0,1,.6.6v.794h1.587v-.794a.584.584,0,0,1,.6-.6H24.9a.584.584,0,0,1,.6.6v5.952a.584.584,0,0,1-.6.6H15.559c0,.14.02.257.02.4A7.536,7.536,0,0,1,8.04,40.572ZM2.723,28.548a.568.568,0,0,1,.217.377.558.558,0,0,1-.1.437,6.436,6.436,0,0,0-1.15,3.671,6.349,6.349,0,0,0,12.7,0,6.126,6.126,0,0,0-.555-2.6.6.6,0,1,1,1.091-.5,8.3,8.3,0,0,1,.5,1.488h8.888V26.683H17.563v.794a.584.584,0,0,1-.6.6H14.19a.584.584,0,0,1-.6-.6v-.794H8.04a6.281,6.281,0,0,0-3.65,1.15c-.437.3-.755-.039-.972-.3l-.694-.694a.578.578,0,0,0-.834,0,.593.593,0,0,0-.2.437.541.541,0,0,0,.178.417Z" transform="translate(0 -15.072)" fill="#444b54"/>
    <path id="Path_90" data-name="Path 90" d="M37.6,9.873a.584.584,0,0,1-.6-.6V7.1a.6.6,0,1,1,1.19,0V9.278A.584.584,0,0,1,37.6,9.873Z" transform="translate(-22.016 -3.619)" fill="#444b54"/>
    <path id="Path_91" data-name="Path 91" d="M26.843,13.072a.6.6,0,0,1-.516-.3l-.992-1.727a.6.6,0,0,1,1.032-.6l.992,1.727a.609.609,0,0,1-.219.814A.851.851,0,0,1,26.843,13.072Z" transform="translate(-14.934 -5.826)" fill="#444b54"/>
    <path id="Path_92" data-name="Path 92" d="M46.851,13.072a.565.565,0,0,1-.3-.079.609.609,0,0,1-.219-.814l.992-1.727a.6.6,0,0,1,1.032.6l-.992,1.727A.646.646,0,0,1,46.851,13.072Z" transform="translate(-27.601 -5.826)" fill="#444b54"/>
    <path id="Path_93" data-name="Path 93" d="M17.436,38.468A3.968,3.968,0,1,1,13.468,34.5,3.968,3.968,0,0,1,17.436,38.468Z" transform="translate(-5.429 -20.508)" fill="#b8e4ff"/>
    <path id="Path_94" data-name="Path 94" d="M38.19,1.1a.6.6,0,1,1-.6-.6A.6.6,0,0,1,38.19,1.1Z" transform="translate(-22.016)" fill="#444b54"/>
  </g>
</svg>
